<svg width="308" height="110" viewBox="0 0 308 110" fill="none" xmlns="http://www.w3.org/2000/svg">
<path d="M41.5063 84.0501C41.4254 84.5792 41.1677 85.1424 40.7333 85.7398C40.2989 86.3372 39.8343 86.6838 39.3394 86.7796C38.3145 86.9779 37.5027 86.3833 36.9042 84.9958C36.3056 83.6082 35.7499 81.589 35.2369 78.9382L35.1445 78.4611C34.8846 77.118 34.5905 76.1665 34.2621 75.6067C33.9623 75.0047 33.7599 74.6222 33.6551 74.4592C33.1021 73.6861 32.4192 73.3783 31.6063 73.5356C31.1114 73.6314 30.6195 73.8366 30.1303 74.1512C29.6344 74.4305 29.2017 74.7526 28.8323 75.1175C28.456 75.4469 28.1328 75.7662 27.8626 76.0751C27.6277 76.3773 27.4852 76.5882 27.435 76.7079C27.4122 76.969 27.4236 77.4068 27.4692 78.0213C27.5501 78.629 27.6481 79.3251 27.7633 80.1095C27.8784 80.8939 27.997 81.696 28.1189 82.5158C28.2409 83.3355 28.3492 84.0846 28.4438 84.763C28.5738 85.4345 28.6764 85.9647 28.7516 86.3535C28.8269 86.7422 28.8753 86.8979 28.897 86.8203C28.9756 87.7952 28.308 88.4194 26.8943 88.693C25.834 88.8981 25.0798 88.6958 24.6317 88.0858C24.219 87.469 23.8553 86.3476 23.5407 84.7218C23.4586 84.2977 23.4107 84.0502 23.397 83.9796C23.4187 83.902 23.4233 83.7361 23.4107 83.4819C23.3914 83.1923 23.3486 82.6872 23.2825 81.9667C23.2164 81.2461 23.0722 80.0273 22.8499 78.3102C22.7485 77.5965 22.6607 76.9535 22.5866 76.3811C22.5057 75.7734 22.4065 75.2609 22.2891 74.8437C22.2138 74.4549 22.1523 74.1368 22.1044 73.8894C22.0497 73.6066 21.9875 73.3803 21.918 73.2104C21.9328 73.0975 21.9032 72.7549 21.8291 72.1826C21.7904 71.6034 21.7237 70.9746 21.6291 70.2962C21.5698 69.611 21.5174 68.9611 21.4718 68.3466C21.4262 67.7321 21.4182 67.3119 21.4479 67.0862C21.3042 66.3439 21.1577 65.4923 21.0084 64.5311C20.8522 63.5347 20.7981 62.5918 20.846 61.7025C20.8939 60.8132 21.0752 60.0447 21.3899 59.3971C21.7331 58.7074 22.3112 58.2838 23.1241 58.1265C24.5025 57.8597 25.3627 58.61 25.7047 60.3772C25.8962 61.3668 25.9754 62.8182 25.9423 64.7314C26.0563 65.6993 26.1116 66.4587 26.1082 67.0093C26.1401 67.5532 26.1583 68.0263 26.1628 68.4288C26.1674 68.8313 26.1862 69.2126 26.2192 69.5729C26.2523 69.9332 26.3304 70.4315 26.4535 71.0676C27.1935 70.1544 27.9597 69.5661 28.7521 69.3028C29.5376 69.0041 30.2838 68.7863 30.9907 68.6495C32.7579 68.3076 34.2709 68.5464 35.5296 69.3662C36.7883 70.186 37.9118 71.7286 38.9002 73.9941C39.0997 74.8355 39.2474 75.5037 39.3431 75.9985C39.4674 76.4511 39.6053 76.9744 39.757 77.5685C39.9371 78.1203 40.1583 78.8842 40.4205 79.8601C40.6827 80.8361 41.0446 82.2328 41.5063 84.0501Z" fill="#AB5D46"/>
<path d="M20.952 42.816C20.268 44.256 19.152 45.408 17.604 46.272C16.056 47.1 14.328 47.514 12.42 47.514C12.168 47.514 11.754 47.478 11.178 47.406C10.602 47.334 9.954 47.19 9.234 46.974C8.55 46.758 7.83 46.47 7.074 46.11C6.354 45.714 5.688 45.21 5.076 44.598C4.464 43.95 3.96 43.176 3.564 42.276C3.168 41.376 2.97 40.314 2.97 39.09C2.934 37.47 3.15 35.994 3.618 34.662C4.122 33.33 4.914 31.98 5.994 30.612L7.722 28.398C9.738 27.03 12.006 26.346 14.526 26.346C15.894 26.346 16.974 26.598 17.766 27.102C18.594 27.606 19.008 28.326 19.008 29.262C19.008 29.982 18.738 30.576 18.198 31.044C17.694 31.476 17.028 31.692 16.2 31.692C16.164 31.692 16.02 31.674 15.768 31.638C15.552 31.566 15.3 31.494 15.012 31.422C14.724 31.35 14.436 31.296 14.148 31.26C13.86 31.188 13.626 31.152 13.446 31.152C12.618 31.152 11.664 31.584 10.584 32.448C9.54 33.312 8.712 34.68 8.1 36.552C7.848 37.344 7.722 37.992 7.722 38.496C7.722 39.504 7.992 40.296 8.532 40.872C9.108 41.448 9.738 41.898 10.422 42.222C11.106 42.51 11.736 42.708 12.312 42.816C12.888 42.888 13.194 42.924 13.23 42.924C13.734 42.924 14.238 42.78 14.742 42.492C15.246 42.204 15.696 41.88 16.092 41.52C16.524 41.16 16.866 40.854 17.118 40.602C17.37 40.314 17.478 40.17 17.442 40.17C17.802 39.846 18.216 39.684 18.684 39.684C19.26 39.684 19.782 39.99 20.25 40.602C20.754 41.178 21.006 41.772 21.006 42.384C21.006 42.564 20.988 42.708 20.952 42.816ZM52.8529 41.628C53.5009 42.06 53.8249 42.582 53.8249 43.194C53.8249 43.518 53.7349 43.86 53.5549 44.22C53.3749 44.544 53.1409 44.85 52.8529 45.138C52.5649 45.39 52.2589 45.606 51.9349 45.786C51.6109 45.966 51.2869 46.056 50.9629 46.056C50.6749 45.948 50.3329 45.768 49.9369 45.516C49.5409 45.228 49.1449 44.922 48.7489 44.598C48.3529 44.238 47.9749 43.842 47.6149 43.41C47.2909 42.978 47.0389 42.546 46.8589 42.114L46.4809 43.032C45.7969 44.328 44.7169 45.552 43.2409 46.704C41.4409 47.028 40.3969 47.19 40.1089 47.19C39.4249 47.19 38.5969 47.082 37.6249 46.866L34.6549 44.76C33.3589 43.536 32.7109 41.862 32.7109 39.738C32.7109 38.982 32.8189 38.154 33.0349 37.254C33.2869 36.318 33.6289 35.382 34.0609 34.446C34.5289 33.51 35.0869 32.592 35.7349 31.692C36.3829 30.792 37.1389 29.982 38.0029 29.262C39.0469 28.866 40.0549 28.542 41.0269 28.29C41.9989 28.002 42.7369 27.822 43.2409 27.75C43.9249 26.994 44.7349 26.616 45.6709 26.616C46.2109 26.616 46.6789 26.886 47.0749 27.426C47.5069 27.93 47.8669 28.578 48.1549 29.37C48.4789 30.162 48.7309 31.044 48.9109 32.016C49.0909 32.952 49.2169 33.852 49.2889 34.716L49.9909 37.578C50.2069 38.478 50.5489 39.252 51.0169 39.9C51.5209 40.548 52.1329 41.124 52.8529 41.628ZM44.6449 35.634C44.5729 35.598 44.3029 34.464 43.8349 32.232C43.6549 32.232 43.3849 32.232 43.0249 32.232C42.6649 32.232 42.2329 32.34 41.7289 32.556C41.2609 32.736 40.7389 33.078 40.1629 33.582C39.6229 34.05 39.1009 34.77 38.5969 35.742C37.8409 37.146 37.4629 38.55 37.4629 39.954C38.0749 41.142 39.0289 42.078 40.3249 42.762C40.7209 42.654 41.0449 42.528 41.2969 42.384C41.5849 42.24 41.8369 42.042 42.0529 41.79C42.2689 41.538 42.4669 41.232 42.6469 40.872C42.8629 40.476 43.0969 39.99 43.3489 39.414C43.8169 38.586 44.1409 37.866 44.3209 37.254C44.5369 36.606 44.6449 36.066 44.6449 35.634ZM78.7092 27.642C79.1052 27.966 79.3032 28.56 79.3032 29.424C79.3032 31.008 78.7092 31.8 77.5212 31.8H77.3052C76.7652 31.836 76.1352 31.89 75.4152 31.962C74.6952 31.998 73.8852 32.07 72.9852 32.178C72.9132 32.754 72.8412 33.528 72.7692 34.5C72.6972 35.436 72.6612 36.57 72.6612 37.902C72.6612 38.01 72.6612 38.118 72.6612 38.226C72.6972 38.334 72.7152 38.46 72.7152 38.604V41.088C72.7152 41.664 72.8052 42.132 72.9852 42.492C73.2012 42.816 73.4532 43.05 73.7412 43.194L75.2532 43.68C76.4412 44.076 77.0352 44.796 77.0352 45.84C77.0352 46.452 76.7832 46.992 76.2792 47.46C75.8112 47.928 75.1992 48.162 74.4432 48.162C74.2272 48.162 73.8492 48.108 73.3092 48C72.8052 47.856 72.2652 47.676 71.6892 47.46C71.1492 47.244 70.6272 46.974 70.1232 46.65C69.6552 46.326 69.3312 45.966 69.1512 45.57C68.7552 44.742 68.4312 43.878 68.1792 42.978C67.9272 42.042 67.8012 41.07 67.8012 40.062C67.8012 38.946 67.8192 38.154 67.8552 37.686C67.8912 37.218 67.9272 36.804 67.9632 36.444C67.9992 36.084 68.0352 35.652 68.0712 35.148C68.1072 34.644 68.1252 33.816 68.1252 32.664C67.4412 32.736 66.4332 32.952 65.1012 33.312C64.3092 33.312 63.6252 33.114 63.0492 32.718C62.5092 32.286 62.2392 31.728 62.2392 31.044C62.2392 30.54 62.3832 30.072 62.6712 29.64C62.9952 29.208 63.6432 28.83 64.6152 28.506C64.9392 28.398 65.2272 28.326 65.4792 28.29C65.7672 28.254 66.0372 28.218 66.2892 28.182C66.5772 28.146 66.8832 28.128 67.2072 28.128C67.5312 28.092 67.9272 28.038 68.3952 27.966C68.4312 27.066 68.4852 26.058 68.5572 24.942C68.6652 23.79 68.8272 22.728 69.0432 21.756C69.2952 20.784 69.6372 19.974 70.0692 19.326C70.5372 18.642 71.1492 18.3 71.9052 18.3C73.2012 18.3 73.9932 18.894 74.2812 20.082C74.2812 20.118 74.2272 20.37 74.1192 20.838C74.0472 21.27 73.9572 21.756 73.8492 22.296C73.7412 22.836 73.6332 23.358 73.5252 23.862C73.4532 24.366 73.4172 24.69 73.4172 24.834L73.2552 27.48C73.5072 27.444 73.7412 27.426 73.9572 27.426C74.1732 27.39 74.4072 27.372 74.6592 27.372H75.1452C75.3972 27.372 75.6312 27.372 75.8472 27.372C76.0632 27.336 76.2612 27.318 76.4412 27.318C77.5212 27.318 78.2772 27.426 78.7092 27.642ZM134.902 29.64C135.478 30 135.766 30.684 135.766 31.692C135.766 32.448 135.568 33.096 135.172 33.636C134.776 34.176 134.236 34.446 133.552 34.446C133.12 34.446 132.67 34.338 132.202 34.122C131.77 33.87 131.302 33.744 130.798 33.744C130.366 33.744 129.934 33.834 129.502 34.014C129.106 34.158 128.638 34.5 128.098 35.04L126.478 36.66C126.478 36.912 126.478 37.164 126.478 37.416C126.514 37.668 126.532 37.938 126.532 38.226C126.532 38.658 126.514 39.108 126.478 39.576C126.478 40.044 126.46 40.548 126.424 41.088L126.91 46.002C126.802 47.658 125.956 48.486 124.372 48.486C123.544 48.486 122.932 48.234 122.536 47.73C122.14 47.19 121.87 46.452 121.726 45.516C121.582 44.58 121.51 43.482 121.51 42.222C121.546 40.962 121.546 39.576 121.51 38.064C121.438 35.796 121.384 34.662 121.348 34.662V34.716C121.204 34.176 121.096 33.708 121.024 33.312C120.952 32.88 120.916 32.502 120.916 32.178C120.916 31.53 121.15 31.008 121.618 30.612C122.086 30.18 122.77 29.964 123.67 29.964C124.246 29.964 124.93 30.414 125.722 31.314C126.55 30.666 127.18 30.18 127.612 29.856C128.08 29.532 128.458 29.298 128.746 29.154C129.07 29.01 129.376 28.938 129.664 28.938C129.952 28.902 130.33 28.884 130.798 28.884C131.194 28.848 131.554 28.866 131.878 28.938C132.238 29.01 132.616 29.082 133.012 29.154L134.902 29.64ZM161.461 46.65C160.993 46.974 160.237 47.298 159.193 47.622C158.149 47.91 157.069 48.162 155.953 48.378L153.739 47.946C153.415 47.838 152.875 47.586 152.119 47.19C151.399 46.794 150.661 46.2 149.905 45.408C149.149 44.58 148.483 43.536 147.907 42.276C147.331 40.98 147.043 39.414 147.043 37.578C147.043 36.93 147.187 36.174 147.475 35.31C147.799 34.41 148.267 33.582 148.879 32.826C149.491 32.034 150.247 31.368 151.147 30.828C152.083 30.288 153.163 30.018 154.387 30.018C156.835 30.018 159.049 30.81 161.029 32.394C162.757 34.77 163.621 37.398 163.621 40.278C163.621 42.402 162.901 44.526 161.461 46.65ZM158.815 38.982C158.635 37.578 158.185 36.48 157.465 35.688C156.781 34.86 155.899 34.446 154.819 34.446C154.099 34.446 153.415 34.806 152.767 35.526C152.155 36.21 151.849 37.218 151.849 38.55C151.849 39.09 151.921 39.666 152.065 40.278C152.209 40.854 152.443 41.394 152.767 41.898C153.091 42.366 153.505 42.762 154.009 43.086C154.513 43.374 155.125 43.518 155.845 43.518C156.997 43.518 157.789 43.176 158.221 42.492C158.653 41.772 158.869 40.89 158.869 39.846C158.869 39.702 158.851 39.576 158.815 39.468C158.815 39.324 158.815 39.162 158.815 38.982ZM190.992 46.65C190.524 46.974 189.768 47.298 188.724 47.622C187.68 47.91 186.6 48.162 185.484 48.378L183.27 47.946C182.946 47.838 182.406 47.586 181.65 47.19C180.93 46.794 180.192 46.2 179.436 45.408C178.68 44.58 178.014 43.536 177.438 42.276C176.862 40.98 176.574 39.414 176.574 37.578C176.574 36.93 176.718 36.174 177.006 35.31C177.33 34.41 177.798 33.582 178.41 32.826C179.022 32.034 179.778 31.368 180.678 30.828C181.614 30.288 182.694 30.018 183.918 30.018C186.366 30.018 188.58 30.81 190.56 32.394C192.288 34.77 193.152 37.398 193.152 40.278C193.152 42.402 192.432 44.526 190.992 46.65ZM188.346 38.982C188.166 37.578 187.716 36.48 186.996 35.688C186.312 34.86 185.43 34.446 184.35 34.446C183.63 34.446 182.946 34.806 182.298 35.526C181.686 36.21 181.38 37.218 181.38 38.55C181.38 39.09 181.452 39.666 181.596 40.278C181.74 40.854 181.974 41.394 182.298 41.898C182.622 42.366 183.036 42.762 183.54 43.086C184.044 43.374 184.656 43.518 185.376 43.518C186.528 43.518 187.32 43.176 187.752 42.492C188.184 41.772 188.4 40.89 188.4 39.846C188.4 39.702 188.382 39.576 188.346 39.468C188.346 39.324 188.346 39.162 188.346 38.982ZM238.073 44.922C238.073 45.39 237.803 45.786 237.263 46.11C236.759 46.398 236.201 46.542 235.589 46.542C234.869 46.542 234.329 46.308 233.969 45.84C233.645 45.372 233.411 44.778 233.267 44.058C233.123 43.302 233.033 42.474 232.997 41.574C232.997 40.674 232.979 39.81 232.943 38.982C232.871 38.73 232.781 38.37 232.673 37.902C232.565 37.434 232.475 36.84 232.403 36.12C231.431 35.04 230.261 34.5 228.893 34.5C228.389 34.5 227.885 34.554 227.381 34.662C226.877 34.734 226.409 34.932 225.977 35.256C225.545 35.544 225.149 35.994 224.789 36.606C224.429 37.218 224.141 38.046 223.925 39.09C223.961 39.27 223.979 39.594 223.979 40.062C223.979 40.458 223.943 40.944 223.871 41.52C223.835 42.06 223.781 42.69 223.709 43.41V43.68C223.709 43.824 223.709 44.184 223.709 44.76C223.709 45.3 223.637 45.876 223.493 46.488C223.349 47.064 223.079 47.586 222.683 48.054C222.323 48.522 221.783 48.756 221.063 48.756C220.415 48.756 219.839 48.558 219.335 48.162C218.831 47.802 218.579 47.352 218.579 46.812C218.579 46.74 218.597 46.47 218.633 46.002C218.705 45.534 218.777 45.012 218.849 44.436C218.957 43.824 219.029 43.23 219.065 42.654C219.137 42.042 219.173 41.556 219.173 41.196C219.173 40.584 219.119 39.972 219.011 39.36V38.658C219.011 36.822 218.651 35.094 217.931 33.474C217.391 33.042 216.545 32.754 215.393 32.61C215.177 32.682 214.907 32.79 214.583 32.934C214.259 33.078 213.935 33.384 213.611 33.852C213.287 34.284 212.999 34.914 212.747 35.742C212.495 36.57 212.315 37.686 212.207 39.09L212.045 41.304C212.261 42.384 212.369 43.32 212.369 44.112C212.369 45.048 212.207 45.804 211.883 46.38C211.595 46.92 210.929 47.19 209.885 47.19C209.345 47.19 208.895 47.136 208.535 47.028C208.211 46.884 207.941 46.596 207.725 46.164C207.545 45.696 207.419 45.03 207.347 44.166C207.275 43.266 207.239 42.078 207.239 40.602C207.239 39.414 207.311 38.262 207.455 37.146C207.599 35.994 207.815 34.518 208.103 32.718C207.995 32.106 207.833 31.548 207.617 31.044C207.437 30.504 207.347 30.09 207.347 29.802C207.347 29.19 207.617 28.65 208.157 28.182C208.697 27.714 209.327 27.48 210.047 27.48C210.587 27.48 211.073 27.642 211.505 27.966L212.423 29.154C212.855 28.794 213.233 28.524 213.557 28.344C213.881 28.128 214.169 27.966 214.421 27.858C214.673 27.75 214.925 27.696 215.177 27.696C215.429 27.66 215.717 27.642 216.041 27.642C216.509 27.642 216.869 27.642 217.121 27.642C217.409 27.642 217.697 27.696 217.985 27.804C218.273 27.912 218.597 28.092 218.957 28.344C219.353 28.56 219.893 28.902 220.577 29.37C221.009 29.658 221.585 30.594 222.305 32.178L222.629 31.8C222.917 31.548 223.313 31.296 223.817 31.044C224.321 30.792 224.861 30.576 225.437 30.396C226.049 30.18 226.661 30.018 227.273 29.91C227.921 29.766 228.497 29.694 229.001 29.694C230.189 29.694 231.215 29.82 232.079 30.072C232.943 30.288 233.681 30.63 234.293 31.098C234.905 31.53 235.445 32.106 235.913 32.826C236.381 33.51 236.831 34.302 237.263 35.202V35.58C237.263 35.868 237.299 36.39 237.371 37.146C237.443 37.902 237.515 38.658 237.587 39.414C237.659 40.17 237.731 40.836 237.803 41.412C237.875 41.952 237.911 42.186 237.911 42.114C237.911 42.15 237.911 42.276 237.911 42.492C237.947 42.672 237.965 42.906 237.965 43.194C238.001 43.446 238.019 43.716 238.019 44.004C238.055 44.256 238.073 44.454 238.073 44.598V44.922Z" fill="#AB5D46"/>
<ellipse cx="286.425" cy="23.4816" rx="4.16949" ry="6.21536" transform="rotate(4.40954 286.425 23.4816)" fill="#AB5D46"/>
<ellipse cx="295.929" cy="28.752" rx="4.16949" ry="6.21536" transform="rotate(47.0079 295.929 28.752)" fill="#AB5D46"/>
<ellipse cx="300.094" cy="38.2937" rx="4.16949" ry="6.21536" transform="rotate(75.6525 300.094 38.2937)" fill="#AB5D46"/>
<ellipse cx="275.772" cy="26.0833" rx="4.16949" ry="6.21536" transform="rotate(-16.6113 275.772 26.0833)" fill="#AB5D46"/>
<path d="M286.654 33.1454C291.229 35.4239 294.899 43.5619 291.679 48.6534C289.662 50.7001 286.779 49.9384 284.784 47.2985C283.147 45.1323 279.207 43.1419 276.494 43.0417C273.578 42.934 270.995 41.6141 271.578 38.6029C272.789 34.9641 282.079 30.8669 286.654 33.1454Z" fill="#AB5D46"/>
</svg>
