<svg width="40" height="40" viewBox="0 0 40 40" fill="none" xmlns="http://www.w3.org/2000/svg">
<rect x="0.666667" y="0.666667" width="38.6667" height="38.6667" rx="19.3333" fill="#FFE5C0"/>
<path d="M9.83893 8.90148C8.95064 9.38114 8.85853 15.985 8.92352 19.2269L17.3276 13.7597C16.8504 10.8902 10.9493 8.30191 9.83893 8.90148Z" fill="#FFCF95"/>
<path d="M32.643 13.2687C33.3091 14.0272 31.0996 20.2511 29.9116 23.2683L23.7049 16.1364C25.15 13.6119 31.7808 12.2868 32.643 13.2687Z" fill="#FFCF95"/>
<path d="M31.017 14.6276C30.2282 14.3573 28.411 14.9732 27.601 15.3149L29.8197 19.6597C30.5475 18.0949 31.8058 14.8978 31.017 14.6276Z" fill="#FC9E78"/>
<path fill-rule="evenodd" clip-rule="evenodd" d="M31.2476 14.9559C30.8635 15.6765 30.1466 16.8215 29.8771 16.4973C29.6607 16.2369 28.7457 15.627 28.0005 15.1562C27.8509 15.2124 27.7158 15.2664 27.601 15.3148L29.8197 19.6597C30.4327 18.3417 31.422 15.8657 31.2476 14.9559Z" fill="#EB8258"/>
<path d="M12.6839 10.8981C11.7545 10.3116 10.9861 10.2381 10.6683 10.4382C10.5755 10.4967 10.5372 10.606 10.5188 10.7141C10.472 10.9883 10.3902 11.6624 10.3671 13.1006C10.3342 15.1504 10.487 15.7038 10.487 15.7038L14.8643 13.0165C14.5417 12.652 13.7607 11.5776 12.6839 10.8981Z" fill="#FC9E78"/>
<path fill-rule="evenodd" clip-rule="evenodd" d="M10.8206 10.3728C10.942 11.3402 11.248 13.0816 11.5919 12.9644C11.9097 12.8561 13.3738 12.5278 14.2852 12.3293C14.43 12.4949 14.5556 12.647 14.6602 12.7737C14.741 12.8716 14.8093 12.9544 14.8643 13.0165L10.487 15.7039C10.487 15.7039 10.3342 15.1504 10.3671 13.1006C10.3902 11.6624 10.472 10.9883 10.5188 10.7141C10.5372 10.6061 10.5755 10.4967 10.6683 10.4383C10.7111 10.4113 10.7621 10.3893 10.8206 10.3728Z" fill="#EB8258"/>
<path d="M20.1499 11.8246C11.43 10.8614 7.81765 16.5678 8.88569 23.3056C9.95373 30.0434 25.2045 32.8691 29.0049 26.4342C30.4183 24.0412 32.9786 13.2419 20.1499 11.8246Z" fill="#FFD5A2"/>
<path d="M16.2705 12.5276C14.5316 12.613 12.1694 13.8412 11.0201 15.6619" stroke="white" stroke-opacity="0.8" stroke-width="0.680272" stroke-linecap="round"/>
<path fill-rule="evenodd" clip-rule="evenodd" d="M28.1325 27.5662C25.4533 26.3583 22.5688 24.587 20.6915 23.2969C19.8835 22.7416 18.838 22.6055 17.8661 22.7344C15.3682 23.0656 11.3217 22.837 8.79221 22.6149C8.81783 22.8438 8.84901 23.0741 8.8857 23.3056C9.88479 29.6084 23.2943 32.4879 28.1325 27.5662Z" fill="#FFE5C0"/>
<path d="M15.6105 17.1347C15.4123 17.0883 15.28 17.1115 15.1921 17.1677C14.9804 17.303 15.0731 17.6264 15.2506 17.8042C15.5495 18.1034 16.0129 18.342 16.2776 18.5269C16.6274 18.7712 17.0691 18.6626 17.0626 18.3115C17.056 17.9605 16.2049 17.2741 15.6105 17.1347Z" fill="#AB5D46"/>
<path d="M25.591 19.6404C25.7895 19.6854 25.8984 19.7642 25.9528 19.8532C26.0838 20.0676 25.8589 20.3178 25.6214 20.3998C25.2217 20.5379 24.7006 20.5495 24.3816 20.5998C23.9602 20.6662 23.6106 20.3752 23.7702 20.0625C23.9298 19.7498 24.9956 19.5054 25.591 19.6404Z" fill="#AB5D46"/>
<path d="M18.4493 24.1245C17.8216 24.839 17.217 24.6259 16.8783 24.4328C17.2482 25.4215 18.2214 25.1597 18.6618 24.9053C18.9416 25.6927 19.7307 25.8464 20.3128 25.4157C18.8739 25.0762 19.3164 24.2816 19.2438 23.8337C19.2317 23.7589 19.2104 23.7073 19.1829 23.6731C18.9857 23.4274 18.6573 23.8878 18.4493 24.1245Z" fill="#AB5D46"/>
<ellipse cx="24.0126" cy="23.1142" rx="1.2354" ry="1.84159" transform="rotate(14.1637 24.0126 23.1142)" fill="#AB5D46"/>
<ellipse cx="15.2508" cy="20.9746" rx="1.2354" ry="1.84159" transform="rotate(14.1637 15.2508 20.9746)" fill="#AB5D46"/>
<path fill-rule="evenodd" clip-rule="evenodd" d="M20.5915 11.8779C20.3336 12.6023 20.2876 14.7597 21.0899 14.9458C22.0636 15.1717 22.5643 13.5323 22.7505 12.2859C22.0872 12.1171 21.3689 11.9797 20.5915 11.8779Z" fill="#FCB358"/>
<path fill-rule="evenodd" clip-rule="evenodd" d="M23.9652 12.65C23.5343 13.6033 22.9388 15.5458 23.925 15.8837C24.8471 16.1996 25.4482 14.4884 25.6795 13.399C25.1636 13.1208 24.5938 12.8694 23.9652 12.65Z" fill="#FCB358"/>
<path fill-rule="evenodd" clip-rule="evenodd" d="M19.2318 11.7465C19.3607 12.8222 19.3388 14.6136 18.3621 14.6664C17.374 14.7199 17.2735 12.8536 17.3546 11.7477C17.9489 11.7091 18.5746 11.7078 19.2318 11.7465Z" fill="#FCB358"/>
<circle cx="10.556" cy="16.4869" r="0.326072" transform="rotate(-2.81172 10.556 16.4869)" fill="white" fill-opacity="0.8"/>
<path fill-rule="evenodd" clip-rule="evenodd" d="M26.3024 13.7641C26.4117 13.958 26.4545 14.1997 26.4038 14.4172C26.3641 14.5872 26.2044 14.7341 26.0648 14.8626C26.0251 14.8992 25.987 14.9343 25.9537 14.9679C25.944 14.9778 25.934 14.9889 25.9235 15.0004C25.8848 15.0433 25.8405 15.0923 25.7871 15.1048C25.685 15.1288 25.5558 15.1173 25.4542 15.1075C24.8958 15.0534 24.3559 14.8017 23.8821 14.5153C23.7521 14.4366 23.6437 14.3466 23.5311 14.253C23.5052 14.2314 23.4791 14.2098 23.4524 14.188C23.3133 14.0742 23.1518 13.9936 22.9911 13.9154C22.6493 13.7491 22.3003 13.584 21.949 13.4388C21.4808 13.2453 21.0274 13.2299 20.5272 13.2512C20.2708 13.2621 20.0144 13.2754 19.7581 13.2886C19.46 13.304 19.1619 13.3194 18.8637 13.3312C18.4527 13.3474 18.0451 13.3372 17.6392 13.2643C17.3462 13.2117 16.9795 13.1008 16.7664 12.8789C16.5394 12.6426 16.5179 12.3819 16.5776 12.0755C16.5822 12.0523 16.5863 12.0295 16.5903 12.0071C16.6024 11.9404 16.6139 11.8768 16.634 11.8144C17.6965 11.6856 18.868 11.6831 20.1499 11.8247C22.8159 12.1192 24.8172 12.8189 26.3024 13.7641Z" fill="#FFF7EC" fill-opacity="0.3"/>
<path fill-rule="evenodd" clip-rule="evenodd" d="M29.7273 24.6312C29.1708 25.4081 28.2778 26.4455 27.0581 27.3975C25.084 28.9382 22.4906 28.9514 20.9419 28.9592C20.6845 28.9605 20.4559 28.9617 20.2638 28.9697C19.4061 29.0054 18.9181 29.5174 18.6978 29.9231C22.8882 30.4408 27.2156 29.4639 29.0049 26.4343C29.2393 26.0374 29.5053 25.4093 29.7273 24.6312Z" fill="#AB5D46" fill-opacity="0.2"/>
<rect x="0.666667" y="0.666667" width="38.6667" height="38.6667" rx="19.3333" stroke="#AB5D46" stroke-width="1.33333"/>
</svg>
